<mxfile host="app.diagrams.net" agent="Mozilla/5.0 (Windows NT 10.0; Win64; x64) AppleWebKit/537.36 (KHTML, like Gecko) Chrome/130.0.0.0 Safari/537.36 Edg/130.0.0.0" version="24.8.4">
  <diagram name="Page-1" id="0hr3DlJT0ztH3nj2hFJ_">
    <mxGraphModel dx="1186" dy="430" grid="0" gridSize="10" guides="1" tooltips="1" connect="1" arrows="1" fold="1" page="0" pageScale="1" pageWidth="827" pageHeight="1169" math="0" shadow="0">
      <root>
        <mxCell id="0" />
        <mxCell id="1" parent="0" />
        <mxCell id="ep430TZBk44aF3sjE94q-1" value="Employee" style="rounded=0;whiteSpace=wrap;html=1;" vertex="1" parent="1">
          <mxGeometry x="-61" y="166" width="120" height="46" as="geometry" />
        </mxCell>
        <mxCell id="ep430TZBk44aF3sjE94q-2" value="assinged" style="rhombus;whiteSpace=wrap;html=1;" vertex="1" parent="1">
          <mxGeometry x="140" y="161.5" width="80" height="55" as="geometry" />
        </mxCell>
        <mxCell id="ep430TZBk44aF3sjE94q-3" value="Department" style="rounded=0;whiteSpace=wrap;html=1;" vertex="1" parent="1">
          <mxGeometry x="301" y="166" width="120" height="46" as="geometry" />
        </mxCell>
        <mxCell id="ep430TZBk44aF3sjE94q-8" value="" style="endArrow=none;html=1;rounded=0;fontSize=12;startSize=8;endSize=8;curved=1;entryX=0;entryY=0.5;entryDx=0;entryDy=0;exitX=1;exitY=0.5;exitDx=0;exitDy=0;" edge="1" parent="1" source="ep430TZBk44aF3sjE94q-1" target="ep430TZBk44aF3sjE94q-2">
          <mxGeometry width="50" height="50" relative="1" as="geometry">
            <mxPoint x="66" y="197" as="sourcePoint" />
            <mxPoint x="110" y="144" as="targetPoint" />
          </mxGeometry>
        </mxCell>
        <mxCell id="ep430TZBk44aF3sjE94q-9" value="" style="rhombus;whiteSpace=wrap;html=1;" vertex="1" parent="1">
          <mxGeometry x="140" y="63" width="80" height="55" as="geometry" />
        </mxCell>
        <mxCell id="ep430TZBk44aF3sjE94q-10" value="" style="endArrow=none;html=1;rounded=0;fontSize=12;startSize=8;endSize=8;curved=1;entryX=0;entryY=0.5;entryDx=0;entryDy=0;exitX=1;exitY=0.5;exitDx=0;exitDy=0;" edge="1" parent="1">
          <mxGeometry width="50" height="50" relative="1" as="geometry">
            <mxPoint x="220" y="188.5" as="sourcePoint" />
            <mxPoint x="301" y="188.5" as="targetPoint" />
          </mxGeometry>
        </mxCell>
        <mxCell id="ep430TZBk44aF3sjE94q-11" value="title" style="ellipse;whiteSpace=wrap;html=1;" vertex="1" parent="1">
          <mxGeometry x="448" y="173" width="85" height="42" as="geometry" />
        </mxCell>
        <mxCell id="ep430TZBk44aF3sjE94q-12" value="id" style="ellipse;whiteSpace=wrap;html=1;" vertex="1" parent="1">
          <mxGeometry x="464" y="133" width="63" height="33" as="geometry" />
        </mxCell>
        <mxCell id="ep430TZBk44aF3sjE94q-14" value="" style="endArrow=none;html=1;rounded=0;fontSize=12;startSize=8;endSize=8;curved=1;entryX=0.042;entryY=0.737;entryDx=0;entryDy=0;entryPerimeter=0;" edge="1" parent="1" target="ep430TZBk44aF3sjE94q-12">
          <mxGeometry width="50" height="50" relative="1" as="geometry">
            <mxPoint x="421" y="174.5" as="sourcePoint" />
            <mxPoint x="471" y="124.5" as="targetPoint" />
          </mxGeometry>
        </mxCell>
        <mxCell id="ep430TZBk44aF3sjE94q-15" value="" style="endArrow=none;html=1;rounded=0;fontSize=12;startSize=8;endSize=8;curved=1;entryX=0;entryY=0.5;entryDx=0;entryDy=0;" edge="1" parent="1" target="ep430TZBk44aF3sjE94q-11">
          <mxGeometry width="50" height="50" relative="1" as="geometry">
            <mxPoint x="421" y="196" as="sourcePoint" />
            <mxPoint x="471" y="146" as="targetPoint" />
          </mxGeometry>
        </mxCell>
        <mxCell id="ep430TZBk44aF3sjE94q-18" value="id" style="ellipse;whiteSpace=wrap;html=1;" vertex="1" parent="1">
          <mxGeometry x="-112" y="69" width="63" height="33" as="geometry" />
        </mxCell>
        <mxCell id="ep430TZBk44aF3sjE94q-19" value="name" style="ellipse;whiteSpace=wrap;html=1;" vertex="1" parent="1">
          <mxGeometry x="-169" y="107" width="85" height="42" as="geometry" />
        </mxCell>
        <mxCell id="ep430TZBk44aF3sjE94q-20" value="" style="endArrow=none;html=1;rounded=0;fontSize=12;startSize=8;endSize=8;curved=1;exitX=0;exitY=0.25;exitDx=0;exitDy=0;" edge="1" parent="1" source="ep430TZBk44aF3sjE94q-1">
          <mxGeometry width="50" height="50" relative="1" as="geometry">
            <mxPoint x="-39" y="149" as="sourcePoint" />
            <mxPoint x="-109" y="147" as="targetPoint" />
          </mxGeometry>
        </mxCell>
        <mxCell id="ep430TZBk44aF3sjE94q-21" value="" style="endArrow=none;html=1;rounded=0;fontSize=12;startSize=8;endSize=8;curved=1;exitX=0.114;exitY=0.014;exitDx=0;exitDy=0;entryX=0.5;entryY=1;entryDx=0;entryDy=0;exitPerimeter=0;" edge="1" parent="1" source="ep430TZBk44aF3sjE94q-1" target="ep430TZBk44aF3sjE94q-18">
          <mxGeometry width="50" height="50" relative="1" as="geometry">
            <mxPoint x="-80" y="155" as="sourcePoint" />
            <mxPoint x="-30" y="105" as="targetPoint" />
          </mxGeometry>
        </mxCell>
        <mxCell id="ep430TZBk44aF3sjE94q-22" value="" style="ellipse;whiteSpace=wrap;html=1;aspect=fixed;" vertex="1" parent="1">
          <mxGeometry x="-15.5" y="272" width="29" height="29" as="geometry" />
        </mxCell>
        <mxCell id="ep430TZBk44aF3sjE94q-23" value="" style="endArrow=none;html=1;rounded=0;fontSize=12;startSize=8;endSize=8;curved=1;exitX=0.5;exitY=0;exitDx=0;exitDy=0;" edge="1" parent="1" source="ep430TZBk44aF3sjE94q-22">
          <mxGeometry width="50" height="50" relative="1" as="geometry">
            <mxPoint x="-52" y="262" as="sourcePoint" />
            <mxPoint x="-2" y="212" as="targetPoint" />
          </mxGeometry>
        </mxCell>
        <mxCell id="ep430TZBk44aF3sjE94q-24" value="Employee" style="rounded=0;whiteSpace=wrap;html=1;" vertex="1" parent="1">
          <mxGeometry x="-140.5" y="379" width="120" height="46" as="geometry" />
        </mxCell>
        <mxCell id="ep430TZBk44aF3sjE94q-25" value="Employee" style="rounded=0;whiteSpace=wrap;html=1;" vertex="1" parent="1">
          <mxGeometry x="25" y="379" width="120" height="46" as="geometry" />
        </mxCell>
        <mxCell id="ep430TZBk44aF3sjE94q-26" value="" style="endArrow=none;html=1;rounded=0;fontSize=12;startSize=8;endSize=8;curved=1;exitX=0.5;exitY=0;exitDx=0;exitDy=0;" edge="1" parent="1" source="ep430TZBk44aF3sjE94q-24">
          <mxGeometry width="50" height="50" relative="1" as="geometry">
            <mxPoint x="-61" y="347" as="sourcePoint" />
            <mxPoint x="-11" y="297" as="targetPoint" />
          </mxGeometry>
        </mxCell>
        <mxCell id="ep430TZBk44aF3sjE94q-28" value="" style="endArrow=none;html=1;rounded=0;fontSize=12;startSize=8;endSize=8;curved=1;entryX=1;entryY=1;entryDx=0;entryDy=0;exitX=0.5;exitY=0;exitDx=0;exitDy=0;" edge="1" parent="1" source="ep430TZBk44aF3sjE94q-25" target="ep430TZBk44aF3sjE94q-22">
          <mxGeometry width="50" height="50" relative="1" as="geometry">
            <mxPoint x="133" y="327" as="sourcePoint" />
            <mxPoint x="10" y="295" as="targetPoint" />
          </mxGeometry>
        </mxCell>
      </root>
    </mxGraphModel>
  </diagram>
</mxfile>
